<svg aria-hidden="true" style="position: absolute; width: 0; height: 0; overflow: hidden;" version="1.1" xmlns="http://www.w3.org/2000/svg" xmlns:xlink="http://www.w3.org/1999/xlink">
<defs>
<symbol id="icon-facebook" viewBox="0 0 32 32">
<path fill="#faf4ea" style="fill: var(--color1, #faf4ea)" d="M0 16c0-8.837 7.163-16 16-16s16 7.163 16 16-7.163 16-16 16-16-7.163-16-16zM17.668 25.408v-8.705h2.403l0.318-3h-2.721l0.004-1.501c0-0.783 0.074-1.202 1.198-1.202h1.502v-3h-2.402c-2.887 0-3.903 1.455-3.903 3.902v1.801h-1.8v3h1.8v8.705h3.602z"></path>
</symbol>
<symbol id="icon-instagram" viewBox="0 0 32 32">
<path fill="#faf4ea" style="fill: var(--color1, #faf4ea)" d="M0 16c0-8.837 7.163-16 16-16s16 7.163 16 16-7.163 16-16 16-16-7.163-16-16zM16 7.467c-2.317 0-2.608 0.010-3.518 0.051-0.908 0.042-1.528 0.186-2.070 0.397-0.592 0.226-1.097 0.561-1.512 0.983l-0.001 0.001c-0.423 0.416-0.758 0.92-0.975 1.482l-0.010 0.029c-0.211 0.543-0.355 1.163-0.396 2.071-0.040 0.91-0.051 1.201-0.051 3.52 0 2.317 0.010 2.607 0.051 3.517 0.042 0.908 0.186 1.528 0.397 2.070 0.226 0.592 0.561 1.097 0.983 1.512l0.001 0.001c0.474 0.474 0.95 0.767 1.511 0.985 0.543 0.21 1.163 0.354 2.072 0.396 0.91 0.041 1.2 0.052 3.518 0.052 2.317 0 2.607-0.010 3.518-0.052 0.908-0.042 1.529-0.185 2.072-0.396 0.591-0.226 1.095-0.561 1.509-0.984l0.001-0.001c0.475-0.475 0.767-0.95 0.985-1.512 0.21-0.543 0.354-1.163 0.397-2.071 0.040-0.91 0.051-1.2 0.051-3.518s-0.010-2.608-0.051-3.518c-0.043-0.909-0.187-1.53-0.397-2.072-0.227-0.591-0.562-1.095-0.984-1.509l-0.001-0.001c-0.415-0.423-0.919-0.758-1.481-0.974l-0.029-0.010c-0.545-0.211-1.165-0.355-2.074-0.397-0.91-0.041-1.2-0.051-3.518-0.051h0.003z"></path>
<path fill="#faf4ea" style="fill: var(--color1, #faf4ea)" d="M15.235 9.005h0.765c2.279 0 2.549 0.008 3.449 0.050 0.832 0.037 1.283 0.176 1.584 0.293 0.398 0.155 0.682 0.34 0.98 0.638 0.3 0.299 0.484 0.583 0.64 0.982 0.116 0.3 0.255 0.752 0.293 1.584 0.041 0.9 0.050 1.17 0.050 3.447s-0.009 2.547-0.050 3.447c-0.038 0.832-0.177 1.284-0.294 1.584-0.144 0.384-0.362 0.712-0.637 0.979l-0.001 0.001c-0.268 0.276-0.596 0.494-0.962 0.632l-0.018 0.006c-0.301 0.118-0.753 0.256-1.585 0.294-0.9 0.041-1.17 0.050-3.449 0.050s-2.548-0.009-3.448-0.050c-0.832-0.038-1.283-0.177-1.584-0.294-0.385-0.144-0.713-0.362-0.981-0.637l-0.001-0.001c-0.276-0.268-0.493-0.596-0.632-0.962l-0.006-0.018c-0.117-0.301-0.256-0.753-0.294-1.585-0.041-0.9-0.050-1.17-0.050-3.448 0-2.28 0.009-2.548 0.050-3.447 0.038-0.833 0.177-1.284 0.294-1.585 0.154-0.398 0.34-0.683 0.638-0.981s0.583-0.484 0.982-0.639c0.3-0.117 0.752-0.256 1.584-0.294 0.787-0.036 1.093-0.046 2.683-0.048v0.002zM20.555 10.422c-0.566 0-1.024 0.458-1.024 1.024s0.458 1.024 1.024 1.024v0c0.566 0 1.024-0.458 1.024-1.024s-0.458-1.024-1.024-1.024v0zM16 11.618c-2.42 0-4.383 1.962-4.383 4.383s1.962 4.383 4.383 4.383v0c2.42 0 4.383-1.962 4.383-4.383s-1.962-4.383-4.383-4.383v0z"></path>
<path fill="#faf4ea" style="fill: var(--color1, #faf4ea)" d="M16 13.155c1.571 0 2.845 1.274 2.845 2.845s-1.274 2.845-2.845 2.845v0c-1.571 0-2.845-1.274-2.845-2.845s1.274-2.845 2.845-2.845v0z"></path>
</symbol>
<symbol id="icon-arrow" viewBox="0 0 32 32">
<path fill="#faf4ea" style="fill: var(--color1, #faf4ea)" opacity="0.7" d="M0 16c0 8.837 7.163 16 16 16s16-7.163 16-16c0-8.837-7.163-16-16-16s-16 7.163-16 16z"></path>
<path fill="none" stroke="#31261a" style="stroke: var(--color2, #31261a)" stroke-linejoin="miter" stroke-linecap="butt" stroke-miterlimit="4" stroke-width="0.5585" d="M0.279 16c0 8.682 7.038 15.721 15.721 15.721s15.721-7.038 15.721-15.721c0-8.682-7.038-15.721-15.721-15.721s-15.721 7.038-15.721 15.721z"></path>
<path fill="#31261a" style="fill: var(--color2, #31261a)" d="M23.060 15.486c0.132 0.132 0.213 0.313 0.213 0.514s-0.081 0.383-0.213 0.514l-4.628 4.628c-0.131 0.126-0.309 0.204-0.505 0.204-0.402 0-0.727-0.326-0.727-0.727 0-0.196 0.078-0.375 0.204-0.505l-0 0 4.114-4.114-4.114-4.114c-0.126-0.131-0.204-0.309-0.204-0.505 0-0.402 0.326-0.727 0.727-0.727 0.196 0 0.375 0.078 0.505 0.204l-0-0 4.628 4.628zM22.545 16.727h-12.191v-1.455h12.191v1.455z"></path>
</symbol>
<symbol id="icon-logo" viewBox="0 0 75 32">
<path fill="#faf4ea" style="fill: var(--color1, #faf4ea)" d="M4.077 7.397l-1.24-0.75c-0.777-0.473-1.331-0.938-1.663-1.394-0.327-0.462-0.49-0.992-0.49-1.59 0-0.897 0.31-1.625 0.929-2.185 0.627-0.56 1.436-0.84 2.431-0.84 0.951 0 1.823 0.266 2.616 0.799v1.85c-0.821-0.787-1.704-1.182-2.649-1.182-0.533 0-0.97 0.125-1.313 0.376-0.342 0.244-0.513 0.559-0.513 0.945 0 0.342 0.125 0.663 0.375 0.962s0.655 0.611 1.215 0.937l1.247 0.734c1.391 0.826 2.087 1.88 2.087 3.163 0 0.913-0.307 1.655-0.921 2.225-0.609 0.57-1.402 0.856-2.381 0.856-1.126 0-2.15-0.345-3.073-1.035v-2.070c0.88 1.114 1.899 1.671 3.057 1.671 0.511 0 0.935-0.141 1.272-0.424 0.343-0.287 0.514-0.647 0.514-1.075 0-0.696-0.501-1.354-1.501-1.973zM16.932 0.785h1.631v11.389h-1.631v-4.957h-6.4v4.957h-1.63v-11.389h1.631v4.924h6.399v-4.924zM26.674 0.623c1.761 0 3.225 0.557 4.394 1.671 1.174 1.114 1.761 2.511 1.761 4.19s-0.592 3.071-1.777 4.174c-1.18 1.098-2.669 1.647-4.467 1.647-1.718 0-3.15-0.549-4.296-1.647-1.141-1.103-1.711-2.483-1.711-4.141 0-1.701 0.575-3.109 1.727-4.223 1.153-1.114 2.609-1.671 4.37-1.671zM26.739 2.171c-1.304 0-2.377 0.408-3.219 1.223-0.837 0.815-1.256 1.856-1.256 3.122 0 1.229 0.421 2.25 1.263 3.065s1.897 1.223 3.163 1.223c1.272 0 2.332-0.415 3.179-1.247 0.854-0.831 1.28-1.866 1.28-3.106 0-1.206-0.426-2.22-1.28-3.040-0.847-0.826-1.891-1.24-3.13-1.24zM34.737 12.174v-11.405h3.611c1.087 0 1.954 0.294 2.6 0.881s0.97 1.375 0.97 2.365c0 0.663-0.166 1.249-0.497 1.76-0.326 0.502-0.792 0.889-1.342 1.11l-0.019 0.007c-0.576 0.228-1.402 0.342-2.479 0.342h-1.206v4.941h-1.638zM38.062 2.22h-1.686v3.563h1.785c0.664 0 1.174-0.155 1.533-0.465 0.358-0.316 0.538-0.764 0.538-1.345 0-1.169-0.723-1.753-2.168-1.753zM11.74 28.449c0 0.973-0.334 1.75-1.002 2.331-0.664 0.582-1.593 0.872-2.788 0.872h-6.531v-11.299h5.462c0.706 0 1.32 0.068 1.842 0.204 0.527 0.136 0.951 0.323 1.272 0.562 0.321 0.234 0.56 0.511 0.717 0.832s0.237 0.671 0.237 1.051c0 0.003 0 0.006 0 0.009 0 0.787-0.328 1.498-0.855 2.004l-0.001 0.001c-0.239 0.223-0.481 0.381-0.726 0.473 0.772 0.304 1.359 0.69 1.761 1.158 0.408 0.462 0.611 1.062 0.611 1.802zM7.761 23.606c0-0.544-0.179-0.905-0.538-1.085s-0.918-0.269-1.679-0.269h-0.719v2.706h0.734c0.777 0 1.337-0.089 1.679-0.269 0.348-0.179 0.522-0.541 0.522-1.084zM8.316 28.31c0-0.967-0.701-1.451-2.103-1.451h-1.386v2.894h1.386c1.402 0 2.103-0.48 2.103-1.443zM25.842 31.652h-3.489l-0.921-2.291h-4.908l-0.938 2.291h-3.489l4.997-11.299h3.766l4.981 11.299zM20.65 27.397l-1.656-4.125-1.671 4.125h3.327zM39.228 31.652h-4.158l-4.32-5.29v5.29h-3.409v-11.299h3.409v5.054l4.092-5.054h3.701l-4.207 5.29 4.892 6.008zM49.23 31.652h-8.518v-11.299h8.381v2.266h-4.973v2.070h4.744v2.275h-4.744v2.413h5.111v2.275zM62.461 31.652h-3.661l-0.888-2.006c-0.326-0.733-0.619-1.269-0.881-1.606-0.261-0.343-0.516-0.56-0.766-0.653-0.245-0.097-0.563-0.146-0.954-0.146h-0.383v4.41h-3.407v-11.299h5.795c0.935 0 1.702 0.19 2.299 0.57s1.027 0.842 1.288 1.386c0.266 0.544 0.399 1.060 0.399 1.549 0 0.57-0.111 1.055-0.334 1.451-0.218 0.391-0.449 0.676-0.694 0.856-0.236 0.174-0.505 0.345-0.786 0.496l-0.037 0.018c0.364 0.211 0.663 0.465 0.897 0.758 0.239 0.287 0.562 0.874 0.97 1.76l1.143 2.454zM57.831 23.923c0-0.522-0.171-0.886-0.514-1.092s-0.899-0.31-1.671-0.31h-0.717v2.723h0.734c0.831 0 1.399-0.090 1.704-0.269 0.31-0.184 0.465-0.536 0.465-1.051zM74.543 20.353l-4.426 6.122v5.177h-3.408v-5.112l-4.508-6.187h3.539l2.593 3.555 2.6-3.555h3.611z"></path>
</symbol>
</defs>
</svg>
